<?xml version="1.0" standalone="no"?>
<!DOCTYPE svg PUBLIC "-//W3C//DTD SVG 20010904//EN"
 "http://www.w3.org/TR/2001/REC-SVG-20010904/DTD/svg10.dtd">
<svg version="1.0" xmlns="http://www.w3.org/2000/svg"
 width="699.000000pt" height="699.000000pt" viewBox="0 0 699.000000 699.000000"
 preserveAspectRatio="xMidYMid meet">
<metadata>
Created by potrace 1.11, written by Peter Selinger 2001-2013
</metadata>
<g transform="translate(0.000000,699.000000) scale(0.100000,-0.100000)"
fill="#000000" stroke="none">
<path d="M4740 6970 c-493 -102 -809 -587 -690 -1056 58 -225 212 -427 418
-545 80 -46 215 -96 284 -105 23 -3 61 -9 83 -13 47 -9 159 -7 230 3 128 18
267 70 385 144 84 53 228 205 278 294 271 478 40 1067 -487 1247 -153 53 -343
64 -501 31z"/>
<path d="M3189 5558 c-338 -192 -622 -359 -631 -370 -28 -32 -22 -56 42 -164
65 -111 87 -126 145 -98 16 8 298 168 627 356 623 354 620 353 609 408 -4 23
-99 186 -116 200 -9 7 -26 14 -38 15 -15 2 -238 -119 -638 -347z"/>
<path d="M1737 5274 c-1 -1 -31 -4 -67 -7 -313 -26 -590 -226 -709 -512 -46
-110 -61 -193 -57 -320 5 -133 9 -158 47 -257 81 -209 259 -387 474 -474 232
-93 509 -84 730 25 509 251 626 888 236 1281 -81 81 -132 120 -221 164 -30 16
-63 32 -72 37 -26 13 -165 48 -217 54 -49 6 -141 12 -144 9z"/>
<path d="M2777 4196 c-12 -14 -44 -67 -71 -118 -77 -147 -154 -85 659 -529 28
-15 183 -100 345 -189 165 -90 307 -162 323 -162 26 -1 77 35 77 54 0 5 20 44
45 88 51 90 54 109 23 144 -32 34 -1322 736 -1354 736 -14 0 -35 -11 -47 -24z"/>
<path d="M5137 3794 c-1 -1 -31 -4 -67 -8 -364 -34 -672 -285 -771 -628 -40
-141 -32 -323 21 -472 118 -332 464 -565 840 -568 228 -1 408 55 579 182 121
90 204 190 266 323 50 105 67 178 71 307 5 144 -17 246 -82 376 -128 260 -417
456 -708 480 -108 8 -146 11 -149 8z"/>
<path d="M1821 3466 c-111 -24 -131 -37 -131 -87 0 -22 34 -268 55 -399 2 -14
7 -45 10 -70 3 -25 8 -57 10 -71 3 -14 7 -41 9 -60 3 -19 16 -115 31 -214 15
-99 29 -196 31 -215 2 -19 13 -96 24 -170 11 -74 22 -151 25 -170 13 -95 17
-117 26 -148 15 -48 37 -50 189 -17 14 3 39 8 57 11 17 3 41 15 53 26 20 18
21 27 16 82 -4 33 -9 68 -11 76 -2 8 -6 33 -9 55 -6 49 -35 251 -41 285 -2 14
-20 138 -40 275 -20 138 -38 264 -41 280 -2 17 -20 140 -39 275 -45 313 -31
297 -224 256z"/>
<path d="M2150 1719 c-138 -16 -280 -70 -397 -150 -111 -76 -231 -224 -289
-355 -52 -119 -68 -198 -67 -354 0 -128 3 -155 26 -233 84 -275 268 -477 521
-572 556 -209 1148 206 1147 806 0 224 -80 428 -230 591 -181 196 -449 297
-711 267z"/>
</g>
</svg>
